<?xml version="1.0" encoding="UTF-8"?>
<svg xmlns="http://www.w3.org/2000/svg" xmlns:xlink="http://www.w3.org/1999/xlink" width="562.5pt" height="562.499982pt" viewBox="0 0 562.5 562.499982" version="1.2">
<g id="surface1">
<path style=" stroke:none;fill-rule:nonzero;fill:rgb(100%,56.079102%,0%);fill-opacity:1;" d="M 106.765625 396.632812 L 273.128906 84.742188 C 276.636719 78.167969 286.113281 78.289062 289.445312 84.960938 L 347.019531 200.089844 Z M 106.765625 396.632812 "/>
<path style=" stroke:none;fill-rule:nonzero;fill:rgb(100%,62.748718%,0%);fill-opacity:1;" d="M 106.765625 396.546875 L 167.332031 23.125 C 168.914062 13.351562 182.042969 11.234375 186.628906 20.011719 L 303.335938 243.679688 Z M 106.765625 396.546875 "/>
<path style=" stroke:none;fill-rule:nonzero;fill:rgb(100%,43.528748%,0%);fill-opacity:1;" d="M 106.851562 396.480469 L 109.039062 394.765625 L 300.464844 238.175781 L 246.472656 134.707031 Z M 106.851562 396.480469 "/>
<path style=" stroke:none;fill-rule:nonzero;fill:rgb(100%,76.858521%,0%);fill-opacity:1;" d="M 106.765625 396.632812 L 397.972656 115.871094 C 404.078125 109.988281 414.265625 113.457031 415.511719 121.84375 L 456.222656 396.632812 L 292.414062 492.097656 C 285.765625 495.832031 277.652344 495.832031 271 492.097656 Z M 106.765625 396.632812 "/>
</g>
</svg>
